# xmcd CD database file
#
# Track frame offsets:
#	150
#	15345
#	33135
#	47282
#	68642
#	83945
#	95587
#	109695
#	123800
#	148192
#	162007
#	181135
#	197670
#	221305
#	240422
#
# Disc length: 3772 seconds
#
# Revision: 0
# Processed by: cddbd v1.5PL3 Copyright (c) Steve Scherf et al.
# Submitted via: CDex 1.60beta1
#
DISCID=b10eba0f
DTITLE=Dick Wellstood - Alone
DYEAR=1975
DGENRE=Jazz
TTITLE0=Viper's Drag 
TTITLE1=Poor Buttermilk
TTITLE2=Atlanta Blues (Make Me A PAllet On Your Floor) 
TTITLE3=Atlanta Blues (Make Me A Pallet On Your Floor) 
TTITLE4=You Can't Lose A Broken Heart 
TTITLE5=Carolina Shout 
TTITLE6=Russian Rug 
TTITLE7=Fig Leaf (A Classy Rag) 
TTITLE8=South Amboy Highball 
TTITLE9=Cheatin' On Me 
TTITLE10=Dollar Dance 
TTITLE11=On The Sunny Side Of The Street 
TTITLE12=Superstar 
TTITLE13=Body And Soul 
TTITLE14=Duke Ellington Medley: Prelude To A Kiss/Day-Dream/Sophisticated Lady/Caravan 
EXTD=YEAR: 1975
EXTT0=
EXTT1=
EXTT2=
EXTT3=
EXTT4=
EXTT5=
EXTT6=
EXTT7=
EXTT8=
EXTT9=
EXTT10=
EXTT11=
EXTT12=
EXTT13=
EXTT14=
PLAYORDER=
